<svg id="Layer_1" data-name="Layer 1" xmlns="http://www.w3.org/2000/svg" viewBox="0 0 60 100"><defs><style>.cls-1{fill:#fff;fill-rule:evenodd;}</style></defs><title>logo-header-icon</title><path class="cls-1" d="M56.5,36.1l-0.9,1.2-0.4.6-0.4.6v0.4l-0.6.9-0.4.6-0.5.5-0.8,1.2-0.9,1.1a25.3,25.3,0,0,1-1.7,2.3l-2,2.1-1,1-2,2.1-1,1-0.5.5-0.5.5-1.1.9c-0.3.3-.4,0.7-0.7,1l-0.8.6-1.3,1-2,1.8-0.5.5L36,59l-0.5.5a15.3,15.3,0,0,1-2.2,1.6l-0.6.3a16.9,16.9,0,0,1-1.4,1l-1.5.8-0.7.5-2.3,1.3c-1,.6-1.7,1.3-2.8,2.1l-0.6.6-0.7.5-0.9.9c-0.1.2-.2,0.1-0.1,0.3a1,1,0,0,0,1,.2l0.6-.3a20.2,20.2,0,0,0,2.3-.9l0.4-.2,1-.8,1.1-.7,0.5-.4,0.5-.3,0.5-.4,1.2-.6h0.1a9.1,9.1,0,0,0,1.4-1l1.1-.7,1.2-.6c0.5-.3.8-0.8,1.3-1.2l1.1-.7,1.4-1.1,0.7-.5c0.6-.6,1.2-1.2,1.9-1.8l1.4-1,0.5-.7L45,54l0.5-.7a2.2,2.2,0,0,0,.5-0.7,3.5,3.5,0,0,0,1.4-1.3l0.3-.3,0.2-.4,0.6-.5,0.3-.6,0.5-.5,0.4-.7,0.5-.5,1-1.1,0.4-.6,0.5-.5,0.5-.6,0.5-.6c0.2-.3.3-0.6,0.5-0.9l0.6-.8,0.3-.5a12,12,0,0,0,.9-1.1l0.5-.9a24.5,24.5,0,0,0,1.5-2.5A28.8,28.8,0,0,1,60,50.6a12.5,12.5,0,0,0-2,.2l-0.5.2-1.1.2-1,.3-1.1.2-1.7.3-1.6.4a2.5,2.5,0,0,0-1,.3,1.6,1.6,0,0,0-.3.8,1.3,1.3,0,0,0,0,.9,0.6,0.6,0,0,0,.6,0h0.7a14.3,14.3,0,0,0,2.3-.6l0.5-.2,0.5-.3h1l1-.4,1.3-.2a9.9,9.9,0,0,1,2.3-.5,0.6,0.6,0,0,1,0,.6,27.5,27.5,0,0,1-2,8.3A29.4,29.4,0,0,1,41.4,77.7a29.6,29.6,0,0,1-8.9,2.2,30.3,30.3,0,0,1-24-9A29.3,29.3,0,0,1,.7,56.7a30.1,30.1,0,0,1,11.6-31A30.3,30.3,0,0,1,28.9,20a28.7,28.7,0,0,1,5.2.3A29.8,29.8,0,0,1,56.5,36.1Zm-8.8-6.7c-0.2.4-.4,0.6-0.5,0.9a4.7,4.7,0,0,0-.2,2c0,1.2-.2,2.7,0,3.6s0.1,0.6.2,0.8,0,0.6,0,.8,0.2,0.4.2,0.7,0,0.9,0,1.5,0.2,0.7.2,1,0,0.6,0,.9,0.4,1.4.8,1.3a0.6,0.6,0,0,0,.5-0.5c0-.1,0-0.3,0-0.4a2,2,0,0,0,.1-0.4c0-.2-0.1-0.3-0.1-0.5s-0.1-.8-0.1-1.1,0.1-1.4,0-2-0.3-.7-0.3-1.1,0.1-1.1,0-1.7-0.1-.4-0.1-0.6a12.4,12.4,0,0,1,0-2.2,16.8,16.8,0,0,1,.4-2.2,4.1,4.1,0,0,0,.2-0.7,2.3,2.3,0,0,0-.2-0.7,0.5,0.5,0,0,0-.5-0.4C47.8,28.3,47.9,29,47.7,29.4Zm-9.5,8.4-1,.5a1.8,1.8,0,0,0-.1,1c0,0.3.3,0.6,0.3,0.8a3.5,3.5,0,0,1-.1.8,8.3,8.3,0,0,0,.1,1.8c0.1,0.6,0,1.3.1,1.8s0.1,0.4.2,0.6,0,1.5.1,2.2,0.2,0.9.3,1.3,0,1,.1,1.5l0.3,0.6c0.1,0.3.1,0.4,0.4,0.5s0.6-.7.7-1.2,0.4-.7.4-1a3.3,3.3,0,0,0-.1-0.5c0-.2,0-0.4,0-0.6a11.3,11.3,0,0,0-.4-1.5c-0.1-.3-0.1-0.7-0.2-1A3.8,3.8,0,0,1,39,45c0-.3,0-0.6,0-0.9s-0.1-.8-0.2-1.1,0-.6,0-0.8-0.1-.5-0.1-0.8,0.2-1.3.2-2,0.1-1.8-.6-1.6H38.2ZM32.4,57c0.1-.2,0-0.4.1-0.6a6,6,0,0,0,.4-0.8,1.6,1.6,0,0,0-.1-0.7c-0.2-.8-0.3-1.7-0.5-2.5s-0.2-.5-0.3-0.8a13.2,13.2,0,0,0-.3-1.4l-0.3-.5-0.6-1.2-0.2-.2a1.6,1.6,0,0,0-.6-0.8h0c-0.6.1-.5,1-0.4,1.4s0,0.3,0,.4,0.3,0.6.4,0.9a4.7,4.7,0,0,1,.3,1c0.1,0.4-.1.9,0,1.3a10.1,10.1,0,0,0,.3,1c0,0.2,0,.4,0,0.6S31,54.7,31,55s0,1.3,0,2A0.8,0.8,0,0,0,32.4,57Zm19.9,3.1-1.5.3H46.1l-0.7.3a2.4,2.4,0,0,0-1.3.3c-0.3.3-.6,1.5-0.3,1.9a1.5,1.5,0,0,0,1.2,0l0.8-.2,1.8-.7h1l1.4-.3h1.7l0.8-.3h0.8a0.9,0.9,0,0,0,.2-1.4H52.3ZM35,66.3l-1.4-.5a1.1,1.1,0,0,0-1.2,1,1,1,0,0,0,0,.9,2,2,0,0,0,1.3.4l0.6,0.2,1.8,0.4,1.2,0.3,1.2,0.3a15.9,15.9,0,0,0,2.6,0c0.8,0,2.1.2,2.1-.5a0.8,0.8,0,0,0-.5-0.5L42,67.8l-0.8-.2-0.8-.2-2.1-.2-1.9-.3Z"/></svg>